# 3ds Max Wavefront OBJ Exporter v0.97b - (c)2007 guruware
# File Created: 02.09.2016 14:50:24

#
# object arrow
#

v  69.6259 -15.2465 195.0236
v  72.8043 -15.2465 192.9083
v  69.6259 -15.2465 195.9084
v  60.5985 -15.2465 195.0236
v  57.5893 -15.2465 195.0236
v  57.5893 -15.2465 190.7929
v  60.5985 -15.2465 190.7929
v  54.5802 -15.2465 195.0236
v  51.5710 -15.2465 195.0236
v  51.5710 -15.2465 190.7929
v  54.5802 -15.2465 190.7929
v  66.6168 -15.2465 195.0236
v  63.6076 -15.2465 195.0236
v  63.6076 -15.2465 190.7929
v  66.6168 -15.2465 190.7929
v  69.6259 -15.2465 190.7929
v  48.5619 -15.2465 195.0236
v  48.5619 -15.2465 190.7929
v  69.6259 -15.2465 189.9082
# 19 vertices

vn 0.0000 -1.0000 -0.0000
vn -0.0000 -1.0000 -0.0000
# 2 vertex normals

vt 0.5000 1.0000 0.0000
vt 1.0000 0.0000 0.0000
vt 0.7500 1.0000 0.0000
vt 0.3125 1.0000 0.0000
vt 0.2500 1.0000 0.0000
vt 0.1875 1.0000 0.0000
vt 0.1250 1.0000 0.0000
vt 0.4375 1.0000 0.0000
vt 0.3750 1.0000 0.0000
vt 0.0625 1.0000 0.0000
# 10 texture coords

g arrow
s 1
f 1/1/1 2/2/1 3/3/1 
f 4/4/1 5/5/1 6/5/2 7/4/2 
f 8/6/1 9/7/1 10/7/2 11/6/2 
f 12/8/1 13/9/1 14/9/2 15/8/2 
f 13/9/1 4/4/1 7/4/2 14/9/2 
f 1/1/1 12/8/1 15/8/2 16/1/2 
f 5/5/1 8/6/1 11/6/2 6/5/2 
f 9/7/1 17/10/2 18/10/2 10/7/2 
f 1/1/1 16/1/2 2/2/1 
f 16/1/2 19/3/1 2/2/1 
# 7 polygons - 3 triangles

#
# shape Line005
#

v  40.9396 -13.2085 192.9458
v  47.0570 -13.2085 192.9458
v  53.1745 -13.2085 192.9458
v  59.2920 -13.2085 192.9458
v  65.4094 -13.2085 192.9458
v  71.5269 -13.2085 192.9458
v  77.6444 -13.2085 192.9458
v  83.7618 -13.2085 192.9458
v  89.8793 -13.2085 192.9458
v  95.9968 -13.2085 192.9458
v  102.1143 -13.2085 192.9458
v  105.7397 -13.2085 192.9251
v  109.0712 -13.2085 192.3763
v  111.8148 -13.2085 190.7717
v  113.6766 -13.2085 187.5831
v  114.3624 -13.2085 182.2826
v  114.3624 -13.2085 178.6672
v  114.3624 -13.2085 174.4015
v  114.3624 -13.2085 169.5578
v  114.3624 -13.2085 164.2084
v  114.3624 -13.2085 158.4254
v  114.3624 -13.2085 152.2811
v  114.3624 -13.2085 145.8479
v  114.3624 -13.2085 139.1978
v  114.3624 -13.2085 132.4033
v  114.3624 -13.2085 125.5365
# 26 vertices

g Line005
l 20 21 22 23 24 25 26 27 28 29 30 31 32 33 34 35 36 37 38 39 40 41 42 43 44 45

